<svg width="32" height="32" viewBox="0 0 32 32" fill="none" xmlns="http://www.w3.org/2000/svg">
<path d="M14.666 22.6667L19.9993 12V9.33335H11.9993V12H17.3327L11.9993 22.6667H14.666ZM15.9993 2.66669C17.7503 2.66669 19.4841 3.01156 21.1018 3.68163C22.7195 4.35169 24.1893 5.33382 25.4274 6.57193C26.6656 7.81004 27.6477 9.2799 28.3177 10.8976C28.9878 12.5152 29.3327 14.2491 29.3327 16C29.3327 19.5362 27.9279 22.9276 25.4274 25.4281C22.927 27.9286 19.5356 29.3334 15.9993 29.3334C14.2484 29.3334 12.5146 28.9885 10.8969 28.3184C9.27923 27.6484 7.80937 26.6662 6.57126 25.4281C4.07077 22.9276 2.66602 19.5362 2.66602 16C2.66602 12.4638 4.07077 9.07242 6.57126 6.57193C9.07174 4.07144 12.4631 2.66669 15.9993 2.66669Z" fill="#6C5248"/>
</svg>
