<svg width="28" height="28" viewBox="0 0 28 28" fill="none" xmlns="http://www.w3.org/2000/svg">
<path d="M9.8 7V9.8H15.4V12.6H12.6C11.8574 12.6 11.1452 12.895 10.6201 13.4201C10.095 13.9452 9.8 14.6574 9.8 15.4V21H18.2V18.2H12.6V15.4H15.4C16.1426 15.4 16.8548 15.105 17.3799 14.5799C17.905 14.0548 18.2 13.3426 18.2 12.6V9.8C18.2 9.05739 17.905 8.3452 17.3799 7.8201C16.8548 7.295 16.1426 7 15.4 7H9.8ZM14 0C15.8385 0 17.659 0.362121 19.3576 1.06569C21.0561 1.76925 22.5995 2.80048 23.8995 4.1005C25.1995 5.40053 26.2307 6.94387 26.9343 8.64243C27.6379 10.341 28 12.1615 28 14C28 17.713 26.525 21.274 23.8995 23.8995C21.274 26.525 17.713 28 14 28C12.1615 28 10.341 27.6379 8.64243 26.9343C6.94387 26.2307 5.40053 25.1995 4.1005 23.8995C1.475 21.274 0 17.713 0 14C0 10.287 1.475 6.72601 4.1005 4.1005C6.72601 1.475 10.287 0 14 0Z" fill="#6C5248"/>
</svg>
