<svg width="27" height="27" viewBox="0 0 27 27" fill="none" xmlns="http://www.w3.org/2000/svg">
<g clip-path="url(#clip0_102_2)">
<path d="M8.85938 15.3188C7.6286 15.3188 6.44824 14.833 5.57796 13.9683C4.70767 13.1035 4.21875 11.9307 4.21875 10.7078C4.21875 9.48489 4.70767 8.31207 5.57796 7.44733C6.44824 6.5826 7.6286 6.0968 8.85938 6.0968C10.0901 6.0968 11.2705 6.5826 12.1408 7.44733C13.0111 8.31207 13.5 9.48489 13.5 10.7078C13.5 11.9307 13.0111 13.1035 12.1408 13.9683C11.2705 14.833 10.0901 15.3188 8.85938 15.3188ZM8.85938 15.3188V21.7742M6.075 19.0076H11.6437" stroke="#6C5248" stroke-width="2.5" stroke-linecap="round" stroke-linejoin="round"/>
<path d="M19.6597 6.09675L19.6087 12.9601M19.6597 6.09675L16.5558 9.24987M19.6597 6.09675L22.7164 9.29856M16.4708 20.6887C17.2815 21.5379 18.386 22.0201 19.5413 22.0292C20.6967 22.0384 21.8082 21.5737 22.6314 20.7374C23.4546 19.9012 23.9221 18.7618 23.9309 17.5701C23.9398 16.3783 23.4893 15.2317 22.6786 14.3825C21.8679 13.5333 20.7634 13.0511 19.6081 13.042C18.4528 13.0329 17.3412 13.4975 16.518 14.3338C15.6948 15.1701 15.2274 16.3094 15.2185 17.5012C15.2097 18.693 15.6601 19.8396 16.4708 20.6887Z" stroke="#6C5248" stroke-width="2.5" stroke-linecap="round" stroke-linejoin="round"/>
</g>
<defs>
<clipPath id="clip0_102_2">
<rect width="27" height="27" fill="white"/>
</clipPath>
</defs>
</svg>
